<?xml version="1.0" standalone="no"?>
<!DOCTYPE svg PUBLIC "-//W3C//DTD SVG 20010904//EN"
 "http://www.w3.org/TR/2001/REC-SVG-20010904/DTD/svg10.dtd">
<svg version="1.0" xmlns="http://www.w3.org/2000/svg"
 width="512.000000pt" height="512.000000pt" viewBox="0 0 512.000000 512.000000"
 preserveAspectRatio="xMidYMid meet">
<metadata>
Created by potrace 1.14, written by Peter Selinger 2001-2017
</metadata>
<g transform="translate(0.000000,512.000000) scale(0.100000,-0.100000)"
fill="#000000" stroke="none">
<path d="M1488 3842 c-57 -35 -58 -40 -58 -401 l0 -330 -335 -3 -335 -3 -32
-33 -33 -32 -3 -818 c-2 -449 0 -832 3 -849 6 -36 47 -83 70 -83 8 0 15 -3 15
-7 0 -5 463 -8 1029 -7 662 0 1028 -3 1024 -9 -4 -6 -1 -7 8 -1 20 13 320 14
312 1 -4 -6 -1 -7 8 -1 21 14 320 14 312 0 -5 -8 -2 -8 8 0 8 7 32 12 54 11
50 -1 114 29 127 59 6 13 14 22 17 20 3 -2 6 74 5 170 -1 124 2 171 10 167 8
-5 7 -2 0 8 -8 9 -12 69 -12 170 l-1 156 50 0 c34 1 47 -3 42 -11 -4 -7 -2 -7
8 1 11 9 92 13 295 14 l279 2 30 32 c17 18 32 38 34 46 5 23 6 1667 1 1664 -3
-2 -11 9 -18 25 -29 64 62 60 -1484 59 -1271 -1 -1406 -2 -1430 -17z"/>
</g>
</svg>
